{
    "asset" : {
        "generator" : "Khronos glTF Blender I/O v3.2.43",
        "version" : "2.0"
    },
    "scene" : 0,
    "scenes" : [
        {
            "name" : "Scene",
            "nodes" : [
                0
            ]
        }
    ],
    "nodes" : [
        {
            "mesh" : 0,
            "name" : "Cube",
            "scale" : [
                1,
                0.5792422294616699,
                1
            ],
            "translation" : [
                0,
                2.4293150901794434,
                0
            ]
        }
    ],
    "materials" : [
        {
            "doubleSided" : true,
            "name" : "Material.010",
            "pbrMetallicRoughness" : {
                "baseColorFactor" : [
                    0.10135311633348465,
                    0.29815733432769775,
                    0,
                    1
                ],
                "metallicFactor" : 0,
                "roughnessFactor" : 0.5
            }
        }
    ],
    "meshes" : [
        {
            "name" : "Mesh",
            "primitives" : [
                {
                    "attributes" : {
                        "POSITION" : 0,
                        "NORMAL" : 1
                    },
                    "indices" : 2,
                    "material" : 0
                }
            ]
        }
    ],
    "accessors" : [
        {
            "bufferView" : 0,
            "componentType" : 5126,
            "count" : 26470,
            "max" : [
                1.9188361167907715,
                2.2170450687408447,
                0.07058997452259064
            ],
            "min" : [
                -1.724700689315796,
                -4.58206844329834,
                -0.17965084314346313
            ],
            "type" : "VEC3"
        },
        {
            "bufferView" : 1,
            "componentType" : 5126,
            "count" : 26470,
            "type" : "VEC3"
        },
        {
            "bufferView" : 2,
            "componentType" : 5123,
            "count" : 39708,
            "type" : "SCALAR"
        }
    ],
    "bufferViews" : [
        {
            "buffer" : 0,
            "byteLength" : 317640,
            "byteOffset" : 0
        },
        {
            "buffer" : 0,
            "byteLength" : 317640,
            "byteOffset" : 317640
        },
        {
            "buffer" : 0,
            "byteLength" : 79416,
            "byteOffset" : 635280
        }
    ],
    "buffers" : [
        {
            "byteLength" : 714696,
            "uri" : "data:application/octet-stream;base64,"
        }
    ]
}
