{
    "asset" : {
        "generator" : "Khronos glTF Blender I/O v3.2.43",
        "version" : "2.0"
    },
    "scene" : 0,
    "scenes" : [
        {
            "name" : "Scene",
            "nodes" : [
                0
            ]
        }
    ],
    "nodes" : [
        {
            "mesh" : 0,
            "name" : "uploads_files_635005_Flower01",
            "rotation" : [
                -0.698589026927948,
                0.7120321989059448,
                -0.060562461614608765,
                0.036273516714572906
            ],
            "scale" : [
                0.30899930000305176,
                0.30899932980537415,
                0.30899930000305176
            ],
            "translation" : [
                1.4239954948425293,
                3.2966015338897705,
                0.06238802894949913
            ]
        }
    ],
    "materials" : [
        {
            "doubleSided" : true,
            "name" : "Material.015",
            "pbrMetallicRoughness" : {
                "baseColorFactor" : [
                    0.8000000715255737,
                    0.2897435426712036,
                    0,
                    1
                ],
                "metallicFactor" : 0,
                "roughnessFactor" : 0.5
            }
        },
        {
            "doubleSided" : true,
            "name" : "Material.016",
            "pbrMetallicRoughness" : {
                "baseColorFactor" : [
                    0.7251842617988586,
                    0.8000000715255737,
                    0,
                    1
                ],
                "metallicFactor" : 0,
                "roughnessFactor" : 0.5
            }
        },
        {
            "doubleSided" : true,
            "name" : "Material.017",
            "pbrMetallicRoughness" : {
                "baseColorFactor" : [
                    0.8000000715255737,
                    0,
                    0.19804880023002625,
                    1
                ],
                "metallicFactor" : 0,
                "roughnessFactor" : 0.5
            }
        }
    ],
    "meshes" : [
        {
            "name" : "uploads_files_635005_Flower01",
            "primitives" : [
                {
                    "attributes" : {
                        "POSITION" : 0,
                        "NORMAL" : 1
                    },
                    "indices" : 2,
                    "material" : 0
                },
                {
                    "attributes" : {
                        "POSITION" : 3,
                        "NORMAL" : 4
                    },
                    "indices" : 5,
                    "material" : 1
                },
                {
                    "attributes" : {
                        "POSITION" : 6,
                        "NORMAL" : 7
                    },
                    "indices" : 8,
                    "material" : 2
                }
            ]
        }
    ],
    "accessors" : [
        {
            "bufferView" : 0,
            "componentType" : 5126,
            "count" : 30720,
            "max" : [
                0.6831949353218079,
                1.1651371717453003,
                0.016499390825629234
            ],
            "min" : [
                -0.6880473494529724,
                -0.13764610886573792,
                -0.1174984872341156
            ],
            "type" : "VEC3"
        },
        {
            "bufferView" : 1,
            "componentType" : 5126,
            "count" : 30720,
            "type" : "VEC3"
        },
        {
            "bufferView" : 2,
            "componentType" : 5123,
            "count" : 46080,
            "type" : "SCALAR"
        },
        {
            "bufferView" : 3,
            "componentType" : 5126,
            "count" : 5919,
            "max" : [
                0.20950612425804138,
                0.7866326570510864,
                -0.06095052883028984
            ],
            "min" : [
                -0.22186575829982758,
                0.3552606701850891,
                -0.2186301052570343
            ],
            "type" : "VEC3"
        },
        {
            "bufferView" : 4,
            "componentType" : 5126,
            "count" : 5919,
            "type" : "VEC3"
        },
        {
            "bufferView" : 5,
            "componentType" : 5123,
            "count" : 9216,
            "type" : "SCALAR"
        },
        {
            "bufferView" : 6,
            "componentType" : 5126,
            "count" : 30720,
            "max" : [
                1.2591300010681152,
                1.7262946367263794,
                0.2038532793521881
            ],
            "min" : [
                -1.2652122974395752,
                -0.7209405899047852,
                -0.06644094735383987
            ],
            "type" : "VEC3"
        },
        {
            "bufferView" : 7,
            "componentType" : 5126,
            "count" : 30720,
            "type" : "VEC3"
        },
        {
            "bufferView" : 8,
            "componentType" : 5123,
            "count" : 46080,
            "type" : "SCALAR"
        }
    ],
    "bufferViews" : [
        {
            "buffer" : 0,
            "byteLength" : 368640,
            "byteOffset" : 0
        },
        {
            "buffer" : 0,
            "byteLength" : 368640,
            "byteOffset" : 368640
        },
        {
            "buffer" : 0,
            "byteLength" : 92160,
            "byteOffset" : 737280
        },
        {
            "buffer" : 0,
            "byteLength" : 71028,
            "byteOffset" : 829440
        },
        {
            "buffer" : 0,
            "byteLength" : 71028,
            "byteOffset" : 900468
        },
        {
            "buffer" : 0,
            "byteLength" : 18432,
            "byteOffset" : 971496
        },
        {
            "buffer" : 0,
            "byteLength" : 368640,
            "byteOffset" : 989928
        },
        {
            "buffer" : 0,
            "byteLength" : 368640,
            "byteOffset" : 1358568
        },
        {
            "buffer" : 0,
            "byteLength" : 92160,
            "byteOffset" : 1727208
        }
    ],
    "buffers" : [
        {
            "byteLength" : 1819368,
            "uri" : "data:application/octet-stream;base64,"
        }
    ]
}
