{
    "asset" : {
        "generator" : "Khronos glTF Blender I/O v3.2.43",
        "version" : "2.0"
    },
    "scene" : 0,
    "scenes" : [
        {
            "name" : "Scene",
            "nodes" : [
                0,
                1
            ]
        }
    ],
    "nodes" : [
        {
            "mesh" : 0,
            "name" : "Sphere",
            "rotation" : [
                -0.02487603761255741,
                0.04151735082268715,
                -0.2080681174993515,
                0.9769161343574524
            ],
            "scale" : [
                0.2802502512931824,
                0.28025028109550476,
                0.28025028109550476
            ],
            "translation" : [
                -1.283205270767212,
                2.914911985397339,
                0.022701840847730637
            ]
        },
        {
            "mesh" : 1,
            "name" : "Plane.003",
            "rotation" : [
                0.5996137857437134,
                0.3747844099998474,
                0.3747844398021698,
                0.5996137261390686
            ],
            "scale" : [
                0.2104969322681427,
                0.4060792028903961,
                0.40607917308807373
            ],
            "translation" : [
                -1.654895305633545,
                3.475137948989868,
                0.06100274249911308
            ]
        }
    ],
    "materials" : [
        {
            "doubleSided" : true,
            "name" : "Material.001",
            "pbrMetallicRoughness" : {
                "baseColorFactor" : [
                    0.3793535530567169,
                    0.8000000715255737,
                    0,
                    1
                ],
                "metallicFactor" : 0,
                "roughnessFactor" : 0.5
            }
        },
        {
            "doubleSided" : true,
            "name" : "Material.002",
            "pbrMetallicRoughness" : {
                "baseColorFactor" : [
                    0.13917988538742065,
                    0.017949601635336876,
                    0.0010394827695563436,
                    1
                ],
                "metallicFactor" : 0,
                "roughnessFactor" : 0.5
            }
        },
        {
            "doubleSided" : true,
            "name" : "Material.014",
            "pbrMetallicRoughness" : {
                "baseColorFactor" : [
                    0.025350181385874748,
                    0.008416255936026573,
                    0,
                    1
                ],
                "metallicFactor" : 0,
                "roughnessFactor" : 0.5
            }
        }
    ],
    "meshes" : [
        {
            "name" : "Sphere",
            "primitives" : [
                {
                    "attributes" : {
                        "POSITION" : 0,
                        "NORMAL" : 1,
                        "TEXCOORD_0" : 2
                    },
                    "indices" : 3,
                    "material" : 0
                },
                {
                    "attributes" : {
                        "POSITION" : 4,
                        "NORMAL" : 5,
                        "TEXCOORD_0" : 6
                    },
                    "indices" : 7,
                    "material" : 1
                }
            ]
        },
        {
            "name" : "Plane.003",
            "primitives" : [
                {
                    "attributes" : {
                        "POSITION" : 8,
                        "NORMAL" : 9,
                        "TEXCOORD_0" : 10
                    },
                    "indices" : 11,
                    "material" : 2
                }
            ]
        }
    ],
    "accessors" : [
        {
            "bufferView" : 0,
            "componentType" : 5126,
            "count" : 769,
            "max" : [
                0.9792000651359558,
                1.0451104640960693,
                0.9999997019767761
            ],
            "min" : [
                -0.8914020657539368,
                -1.5099799633026123,
                -0.9999995231628418
            ],
            "type" : "VEC3"
        },
        {
            "bufferView" : 1,
            "componentType" : 5126,
            "count" : 769,
            "type" : "VEC3"
        },
        {
            "bufferView" : 2,
            "componentType" : 5126,
            "count" : 769,
            "type" : "VEC2"
        },
        {
            "bufferView" : 3,
            "componentType" : 5123,
            "count" : 3780,
            "type" : "SCALAR"
        },
        {
            "bufferView" : 4,
            "componentType" : 5126,
            "count" : 115,
            "max" : [
                0.1329471617937088,
                1.3428494930267334,
                0.07663880288600922
            ],
            "min" : [
                -0.017481602728366852,
                1.0451104640960693,
                -0.07378996163606644
            ],
            "type" : "VEC3"
        },
        {
            "bufferView" : 5,
            "componentType" : 5126,
            "count" : 115,
            "type" : "VEC3"
        },
        {
            "bufferView" : 6,
            "componentType" : 5126,
            "count" : 115,
            "type" : "VEC2"
        },
        {
            "bufferView" : 7,
            "componentType" : 5123,
            "count" : 252,
            "type" : "SCALAR"
        },
        {
            "bufferView" : 8,
            "componentType" : 5126,
            "count" : 18,
            "max" : [
                0.29357409477233887,
                -0.11416419595479965,
                1.452147364616394
            ],
            "min" : [
                -1.549350380897522,
                -0.19831734895706177,
                -0.4733341932296753
            ],
            "type" : "VEC3"
        },
        {
            "bufferView" : 9,
            "componentType" : 5126,
            "count" : 18,
            "type" : "VEC3"
        },
        {
            "bufferView" : 10,
            "componentType" : 5126,
            "count" : 18,
            "type" : "VEC2"
        },
        {
            "bufferView" : 11,
            "componentType" : 5123,
            "count" : 48,
            "type" : "SCALAR"
        }
    ],
    "bufferViews" : [
        {
            "buffer" : 0,
            "byteLength" : 9228,
            "byteOffset" : 0
        },
        {
            "buffer" : 0,
            "byteLength" : 9228,
            "byteOffset" : 9228
        },
        {
            "buffer" : 0,
            "byteLength" : 6152,
            "byteOffset" : 18456
        },
        {
            "buffer" : 0,
            "byteLength" : 7560,
            "byteOffset" : 24608
        },
        {
            "buffer" : 0,
            "byteLength" : 1380,
            "byteOffset" : 32168
        },
        {
            "buffer" : 0,
            "byteLength" : 1380,
            "byteOffset" : 33548
        },
        {
            "buffer" : 0,
            "byteLength" : 920,
            "byteOffset" : 34928
        },
        {
            "buffer" : 0,
            "byteLength" : 504,
            "byteOffset" : 35848
        },
        {
            "buffer" : 0,
            "byteLength" : 216,
            "byteOffset" : 36352
        },
        {
            "buffer" : 0,
            "byteLength" : 216,
            "byteOffset" : 36568
        },
        {
            "buffer" : 0,
            "byteLength" : 144,
            "byteOffset" : 36784
        },
        {
            "buffer" : 0,
            "byteLength" : 96,
            "byteOffset" : 36928
        }
    ],
    "buffers" : [
        {
            "byteLength" : 37024,
            "uri" : "data:application/octet-stream;base64,"
        }
    ]
}
