{
    "asset" : {
        "generator" : "Khronos glTF Blender I/O v3.2.43",
        "version" : "2.0"
    },
    "scene" : 0,
    "scenes" : [
        {
            "name" : "Scene",
            "nodes" : [
                0,
                1
            ]
        }
    ],
    "nodes" : [
        {
            "mesh" : 0,
            "name" : "Cylinder.001",
            "rotation" : [
                0,
                0,
                -0.7071067094802856,
                0.7071068286895752
            ],
            "scale" : [
                1.1047788858413696,
                0.32644495368003845,
                1.1047788858413696
            ]
        },
        {
            "mesh" : 1,
            "name" : "Text.001",
            "rotation" : [
                0.5,
                0.5,
                -0.5,
                0.5000000596046448
            ],
            "scale" : [
                1.1729322671890259,
                1.1729322671890259,
                1.1729322671890259
            ],
            "translation" : [
                0.852135956287384,
                0.03909459710121155,
                -0.03882753849029541
            ]
        }
    ],
    "animations" : [
        {
            "channels" : [
                {
                    "sampler" : 0,
                    "target" : {
                        "node" : 0,
                        "path" : "translation"
                    }
                },
                {
                    "sampler" : 1,
                    "target" : {
                        "node" : 0,
                        "path" : "rotation"
                    }
                },
                {
                    "sampler" : 2,
                    "target" : {
                        "node" : 0,
                        "path" : "scale"
                    }
                }
            ],
            "name" : "Cylinder.001",
            "samplers" : [
                {
                    "input" : 16,
                    "interpolation" : "LINEAR",
                    "output" : 17
                },
                {
                    "input" : 16,
                    "interpolation" : "LINEAR",
                    "output" : 18
                },
                {
                    "input" : 16,
                    "interpolation" : "LINEAR",
                    "output" : 19
                }
            ]
        },
        {
            "channels" : [
                {
                    "sampler" : 0,
                    "target" : {
                        "node" : 1,
                        "path" : "translation"
                    }
                },
                {
                    "sampler" : 1,
                    "target" : {
                        "node" : 1,
                        "path" : "rotation"
                    }
                },
                {
                    "sampler" : 2,
                    "target" : {
                        "node" : 1,
                        "path" : "scale"
                    }
                }
            ],
            "name" : "Text.001",
            "samplers" : [
                {
                    "input" : 16,
                    "interpolation" : "LINEAR",
                    "output" : 20
                },
                {
                    "input" : 16,
                    "interpolation" : "LINEAR",
                    "output" : 21
                },
                {
                    "input" : 16,
                    "interpolation" : "LINEAR",
                    "output" : 22
                }
            ]
        }
    ],
    "materials" : [
        {
            "doubleSided" : true,
            "name" : "Material.001",
            "pbrMetallicRoughness" : {
                "baseColorFactor" : [
                    0.8000000715255737,
                    0.004328982904553413,
                    0,
                    1
                ],
                "metallicFactor" : 0,
                "roughnessFactor" : 0.5
            }
        },
        {
            "doubleSided" : true,
            "name" : "Material.002",
            "pbrMetallicRoughness" : {
                "baseColorFactor" : [
                    0.5343105792999268,
                    0.8000000715255737,
                    0,
                    1
                ],
                "metallicFactor" : 0,
                "roughnessFactor" : 0.5
            }
        },
        {
            "doubleSided" : true,
            "name" : "Material.003",
            "pbrMetallicRoughness" : {
                "baseColorFactor" : [
                    0.030400201678276062,
                    0.030400201678276062,
                    0.030400201678276062,
                    1
                ],
                "metallicFactor" : 0,
                "roughnessFactor" : 0.5
            }
        }
    ],
    "meshes" : [
        {
            "name" : "Cylinder.001",
            "primitives" : [
                {
                    "attributes" : {
                        "POSITION" : 0,
                        "NORMAL" : 1,
                        "TEXCOORD_0" : 2
                    },
                    "indices" : 3
                },
                {
                    "attributes" : {
                        "POSITION" : 4,
                        "NORMAL" : 5,
                        "TEXCOORD_0" : 6
                    },
                    "indices" : 7,
                    "material" : 0
                },
                {
                    "attributes" : {
                        "POSITION" : 8,
                        "NORMAL" : 9,
                        "TEXCOORD_0" : 10
                    },
                    "indices" : 11,
                    "material" : 1
                }
            ]
        },
        {
            "name" : "text.001",
            "primitives" : [
                {
                    "attributes" : {
                        "POSITION" : 12,
                        "NORMAL" : 13,
                        "TEXCOORD_0" : 14
                    },
                    "indices" : 15,
                    "material" : 2
                }
            ]
        }
    ],
    "accessors" : [
        {
            "bufferView" : 0,
            "componentType" : 5126,
            "count" : 64,
            "max" : [
                2.1208419799804688,
                -2.1219303607940674,
                2.1208419799804688
            ],
            "min" : [
                -2.1208419799804688,
                -2.1462926864624023,
                -2.1208419799804688
            ],
            "type" : "VEC3"
        },
        {
            "bufferView" : 1,
            "componentType" : 5126,
            "count" : 64,
            "type" : "VEC3"
        },
        {
            "bufferView" : 2,
            "componentType" : 5126,
            "count" : 64,
            "type" : "VEC2"
        },
        {
            "bufferView" : 3,
            "componentType" : 5123,
            "count" : 282,
            "type" : "SCALAR"
        },
        {
            "bufferView" : 4,
            "componentType" : 5126,
            "count" : 130,
            "max" : [
                2.1208419799804688,
                -0.09756815433502197,
                2.1208419799804688
            ],
            "min" : [
                -2.1208419799804688,
                -2.1462926864624023,
                -2.1208419799804688
            ],
            "type" : "VEC3"
        },
        {
            "bufferView" : 5,
            "componentType" : 5126,
            "count" : 130,
            "type" : "VEC3"
        },
        {
            "bufferView" : 6,
            "componentType" : 5126,
            "count" : 130,
            "type" : "VEC2"
        },
        {
            "bufferView" : 7,
            "componentType" : 5123,
            "count" : 384,
            "type" : "SCALAR"
        },
        {
            "bufferView" : 8,
            "componentType" : 5126,
            "count" : 196,
            "max" : [
                1.7776260375976562,
                1.4769549369812012,
                1.7776260375976562
            ],
            "min" : [
                -1.7776261568069458,
                -0.12193024158477783,
                -1.7776260375976562
            ],
            "type" : "VEC3"
        },
        {
            "bufferView" : 9,
            "componentType" : 5126,
            "count" : 196,
            "type" : "VEC3"
        },
        {
            "bufferView" : 10,
            "componentType" : 5126,
            "count" : 196,
            "type" : "VEC2"
        },
        {
            "bufferView" : 11,
            "componentType" : 5123,
            "count" : 858,
            "type" : "SCALAR"
        },
        {
            "bufferView" : 12,
            "componentType" : 5126,
            "count" : 678,
            "max" : [
                1.4305001497268677,
                0,
                0.43400001525878906
            ],
            "min" : [
                -1.4304999113082886,
                0,
                -0.43400001525878906
            ],
            "type" : "VEC3"
        },
        {
            "bufferView" : 13,
            "componentType" : 5126,
            "count" : 678,
            "type" : "VEC3"
        },
        {
            "bufferView" : 14,
            "componentType" : 5126,
            "count" : 678,
            "type" : "VEC2"
        },
        {
            "bufferView" : 15,
            "componentType" : 5123,
            "count" : 1455,
            "type" : "SCALAR"
        },
        {
            "bufferView" : 16,
            "componentType" : 5126,
            "count" : 2,
            "max" : [
                0.041666666666666664
            ],
            "min" : [
                0
            ],
            "type" : "SCALAR"
        },
        {
            "bufferView" : 17,
            "componentType" : 5126,
            "count" : 2,
            "type" : "VEC3"
        },
        {
            "bufferView" : 18,
            "componentType" : 5126,
            "count" : 2,
            "type" : "VEC4"
        },
        {
            "bufferView" : 19,
            "componentType" : 5126,
            "count" : 2,
            "type" : "VEC3"
        },
        {
            "bufferView" : 20,
            "componentType" : 5126,
            "count" : 2,
            "type" : "VEC3"
        },
        {
            "bufferView" : 21,
            "componentType" : 5126,
            "count" : 2,
            "type" : "VEC4"
        },
        {
            "bufferView" : 22,
            "componentType" : 5126,
            "count" : 2,
            "type" : "VEC3"
        }
    ],
    "bufferViews" : [
        {
            "buffer" : 0,
            "byteLength" : 768,
            "byteOffset" : 0
        },
        {
            "buffer" : 0,
            "byteLength" : 768,
            "byteOffset" : 768
        },
        {
            "buffer" : 0,
            "byteLength" : 512,
            "byteOffset" : 1536
        },
        {
            "buffer" : 0,
            "byteLength" : 564,
            "byteOffset" : 2048
        },
        {
            "buffer" : 0,
            "byteLength" : 1560,
            "byteOffset" : 2612
        },
        {
            "buffer" : 0,
            "byteLength" : 1560,
            "byteOffset" : 4172
        },
        {
            "buffer" : 0,
            "byteLength" : 1040,
            "byteOffset" : 5732
        },
        {
            "buffer" : 0,
            "byteLength" : 768,
            "byteOffset" : 6772
        },
        {
            "buffer" : 0,
            "byteLength" : 2352,
            "byteOffset" : 7540
        },
        {
            "buffer" : 0,
            "byteLength" : 2352,
            "byteOffset" : 9892
        },
        {
            "buffer" : 0,
            "byteLength" : 1568,
            "byteOffset" : 12244
        },
        {
            "buffer" : 0,
            "byteLength" : 1716,
            "byteOffset" : 13812
        },
        {
            "buffer" : 0,
            "byteLength" : 8136,
            "byteOffset" : 15528
        },
        {
            "buffer" : 0,
            "byteLength" : 8136,
            "byteOffset" : 23664
        },
        {
            "buffer" : 0,
            "byteLength" : 5424,
            "byteOffset" : 31800
        },
        {
            "buffer" : 0,
            "byteLength" : 2910,
            "byteOffset" : 37224
        },
        {
            "buffer" : 0,
            "byteLength" : 8,
            "byteOffset" : 40136
        },
        {
            "buffer" : 0,
            "byteLength" : 24,
            "byteOffset" : 40144
        },
        {
            "buffer" : 0,
            "byteLength" : 32,
            "byteOffset" : 40168
        },
        {
            "buffer" : 0,
            "byteLength" : 24,
            "byteOffset" : 40200
        },
        {
            "buffer" : 0,
            "byteLength" : 24,
            "byteOffset" : 40224
        },
        {
            "buffer" : 0,
            "byteLength" : 32,
            "byteOffset" : 40248
        },
        {
            "buffer" : 0,
            "byteLength" : 24,
            "byteOffset" : 40280
        }
    ],
    "buffers" : [
        {
            "byteLength" : 40304,
            "uri" : "data:application/octet-stream;base64,"
        }
    ]
}
